Coordinates
version=1
nRows=5
nColumns=40
inDegrees=yes

Units are S.I. units (second, meters, Newtons, ...)
Angles are in degrees.

endheader
time	pelvis_tilt	pelvis_list	pelvis_rotation	pelvis_tx	pelvis_ty	pelvis_tz	hip_flexion_r	hip_adduction_r	hip_rotation_r	knee_angle_r	knee_angle_r_beta	ankle_angle_r	subtalar_angle_r	mtp_angle_r	hip_flexion_l	hip_adduction_l	hip_rotation_l	knee_angle_l	knee_angle_l_beta	ankle_angle_l	subtalar_angle_l	mtp_angle_l	lumbar_extension	lumbar_bending	lumbar_rotation	arm_flex_r	arm_add_r	arm_rot_r	elbow_flex_r	pro_sup_r	wrist_flex_r	wrist_dev_r	arm_flex_l	arm_add_l	arm_rot_l	elbow_flex_l	pro_sup_l	wrist_flex_l	wrist_dev_l
     53.62528571	     -4.52104287	     -4.70423305	     -2.63970290	      0.89211373	      0.93494886	      0.41502807	     33.02756018	     -3.35878317	     -5.32557680	     50.81080013	     50.81080013	      0.99553187	    -16.27688914	      2.51007023	     11.51665517	     -3.64284330	     -6.59148924	     18.41798050	     18.41798050	     13.74643818	     -9.30895913	     -1.20711098	    -10.96755914	      5.14262168	      2.04130994	      1.98057870	    -14.41350167	      3.20267204	     26.33501377	     46.78160376	      0.00000000	      0.00000000	     20.91950607	    -15.95780323	     -0.09196227	     50.80894615	     46.42788477	      0.00000000	      0.00000000
     53.63807143	     -4.63184517	     -4.78452833	     -2.78665816	      0.89143502	      0.93475165	      0.41514961	     32.85511710	     -3.10404953	     -5.58013800	     47.32600776	     47.32600776	      0.40553751	    -15.70011047	      0.29708277	     11.11744571	     -3.75157460	     -6.81662959	     18.25798667	     18.25798667	     14.04641684	     -9.02443459	     -1.38415116	    -10.99325168	      5.30318204	      1.24312912	      0.22362274	    -14.55424605	      2.45263174	     26.12040210	     46.79753424	      0.00000000	      0.00000000	     20.35123336	    -16.75085757	     -2.32825112	     54.66071743	     46.68146607	      0.00000000	      0.00000000
     53.65085714	     -4.84114716	     -4.80119891	     -2.97430508	      0.89079430	      0.93440025	      0.41544141	     32.78832022	     -2.85069920	     -5.81031409	     43.87239071	     43.87239071	      0.63822430	    -14.63765618	      0.47139248	     10.72655531	     -3.76452872	     -6.93860584	     17.91505464	     17.91505464	     14.29456360	     -8.95364223	     -1.43365600	    -10.77176658	      5.35647222	      1.27546567	     -1.88303530	    -14.85253467	      2.45299415	     25.23393938	     46.81212718	      0.00000000	      0.00000000	     21.25824471	    -17.15809929	     -2.75514908	     55.70572368	     46.74061481	      0.00000000	      0.00000000
     53.66364286	     -5.04981300	     -4.69529623	     -3.20483837	      0.89015564	      0.93389805	      0.41590497	     32.68045539	     -2.66023866	     -5.97684940	     40.36473511	     40.36473511	      0.83934275	    -13.46240237	      0.68106747	     10.40964034	     -3.66964933	     -7.14772869	     17.72064595	     17.72064595	     14.52059861	     -8.92230147	     -1.52824923	    -10.57097075	      5.25532153	      1.23854220	     -3.89552465	    -15.01800832	      2.41672896	     24.56938529	     46.82152267	      0.00000000	      0.00000000	     22.07906695	    -17.74789030	     -3.23779026	     56.81021386	     46.80345385	      0.00000000	      0.00000000
     53.67642857	     -5.01673622	     -4.70472078	     -3.42843454	      0.88990973	      0.93367535	      0.41644689	     32.04419556	     -2.45281412	     -6.56331534	     36.56102367	     36.56102367	      0.80364046	    -11.68290459	     -0.51278670	      9.69810862	     -3.71782987	     -7.51314437	     17.35836690	     17.35836690	     14.86511543	     -8.43187556	     -1.87585895	    -10.83531462	      5.26870581	      1.45848084	     -6.48801938	    -15.35730848	      1.57204201	     25.54956432	     46.79580273	      0.00000000	      0.00000000	     21.67737936	    -17.73145877	     -5.16154552	     61.63684762	     47.03084659	      0.00000000	      0.00000000
